<?xml version="1.0" encoding="UTF-8"?>
<svg xmlns="http://www.w3.org/2000/svg" viewBox="0 0 2100 1900">
  <!-- White icon only - SalesTub brand mark -->
  <g fill="#FFFFFF">
    <polygon points="2030 0 1819 362 277 373 0 0 2030 0"/>
    <polygon points="1714 648 915 648 277 373 1051 368 1714 648"/>
    <polygon points="327 648 568 958 1590 958 1714 648 327 648"/>
    <polygon points="1037 1744 1037 1031 599 1031 876 1482 758 1132 971 1132 971 1630 1037 1744"/>
    <polygon points="1037 1744 1037 1031 1474 1031 1198 1482 1316 1132 1103 1132 1103 1630 1037 1744"/>
  </g>
</svg>
